<?xml version="1.0" encoding="iso-8859-1"?>
<!-- Uploaded to: SVG Repo, www.svgrepo.com, Generator: SVG Repo Mixer Tools -->
<svg fill="#000000" height="800px" width="800px" version="1.1" id="Layer_1" xmlns="http://www.w3.org/2000/svg" xmlns:xlink="http://www.w3.org/1999/xlink" 
	 viewBox="0 0 512 512" xml:space="preserve">
<g>
	<g>
		<g>
			<path d="M256,121.655c-74.072,0-134.334,60.263-134.334,134.334S181.929,390.323,256,390.323s134.334-60.263,134.334-134.334
				S330.072,121.655,256,121.655z M256,356.223c-55.269,0-100.233-44.965-100.233-100.233c0-55.268,44.965-100.233,100.233-100.233
				c55.268,0,100.233,44.965,100.233,100.233C356.233,311.258,311.269,356.223,256,356.223z"/>
			<path d="M263.005,244.436v-21.087c9.388,0.722,12.132,5.344,16.898,5.344c6.355,0,8.955-7.943,8.955-11.843
				c0-9.965-16.898-12.276-25.853-12.565v-3.61c0-2.022-2.745-3.9-5.489-3.9c-3.177,0-5.488,1.878-5.488,3.9v4.044
				c-15.309,2.167-28.885,10.977-28.885,29.319c0,18.487,15.599,24.697,28.885,29.753v23.396
				c-10.687-1.878-15.599-10.398-21.664-10.398c-5.488,0-9.821,7.221-9.821,12.132c0,9.244,14.154,18.197,31.485,18.775v3.61
				c0,2.022,2.311,3.9,5.488,3.9c2.744,0,5.489-1.877,5.489-3.9v-4.189c16.898-2.744,28.452-13.575,28.452-31.485
				C291.458,256.134,276.148,249.346,263.005,244.436z M253.473,240.969c-5.488-2.311-9.244-4.91-9.244-9.099
				c0-3.466,2.744-6.788,9.244-8.088V240.969z M261.561,287.042v-19.353c5.199,2.455,8.81,5.489,8.81,10.254
				C270.371,283.142,266.471,285.886,261.561,287.042z"/>
			<path d="M451.333,36.953l-59.64-34.434c-19.508-11.267-36.585,18.253-17.05,29.531l4.533,2.617H256
				c-9.416,0-17.05,7.634-17.05,17.05V88.34c0,9.416,7.634,17.05,17.05,17.05c9.416,0,17.05-7.634,17.05-17.05V68.769h106.123
				l-4.532,2.617c-19.512,11.266-2.481,40.809,17.05,29.531l59.64-34.433C462.795,59.869,462.561,43.433,451.333,36.953z"/>
			<path d="M256,406.587c-9.416,0-17.05,7.634-17.05,17.05v19.573H132.826l4.532-2.617c19.509-11.263,2.487-40.813-17.05-29.531
				l-59.64,34.433c-11.27,6.504-11.425,22.937,0,29.531l59.64,34.432c19.648,11.348,36.435-18.339,17.05-29.531l-4.532-2.617
				h123.175c9.416,0,17.05-7.634,17.05-17.05v-36.623C273.05,414.221,265.418,406.587,256,406.587z"/>
		</g>
	</g>
</g>
</svg>